<?xml version="1.0" encoding="UTF-8" standalone="no"?>
<!-- Created with Inkscape (http://www.inkscape.org/) -->

<svg
   width="199.83353mm"
   height="208.82643mm"
   viewBox="0 0 199.83353 208.82643"
   version="1.1"
   id="svg1"
   xmlns="http://www.w3.org/2000/svg"
   xmlns:svg="http://www.w3.org/2000/svg">
  <defs
     id="defs1" />
  <g
     id="layer1"
     transform="translate(-267.5191,-56.770163)">
    <path
       style="fill:#fb6304;stroke-width:0.264583"
       d="m 324.54258,264.53352 c 0.31208,-0.58467 1.78002,-2.57897 3.2621,-4.43178 2.08183,-2.60259 3.21034,-3.74795 4.96203,-5.03615 1.24703,-0.91707 2.35422,-1.9291 2.4604,-2.24895 0.40866,-1.23103 0.0971,-7.66477 -0.57773,-11.93046 -1.10632,-6.99305 -1.30926,-7.68997 -2.962,-10.17166 -1.84267,-2.76686 -2.63121,-4.70519 -2.99234,-7.3555 -0.52599,-3.86019 -1.70056,-7.88776 -4.98611,-17.09732 -1.18147,-3.31172 -2.68994,-7.25847 -3.35215,-8.77056 -1.20038,-2.74094 -1.21449,-2.7591 -4.67471,-6.01723 -5.04546,-4.75079 -6.83382,-7.71864 -7.42976,-12.32997 -0.38679,-2.99296 0.009,-6.06491 1.06825,-8.29763 0.5717,-1.20469 1.74314,-2.72099 4.07703,-5.27723 5.1095,-5.5963 8.13446,-9.87635 10.05787,-14.23102 l 0.81645,-1.84847 -0.88932,-0.80856 c -0.48913,-0.4447 -1.06792,-0.81013 -1.2862,-0.81206 -0.22508,-0.002 -0.91227,0.93274 -1.5875,2.15934 -2.40559,4.36994 -5.19592,8.17041 -10.09017,13.74296 -4.73139,5.38713 -5.62626,7.50297 -5.63445,13.32215 -0.005,3.62475 0.46275,5.49757 2.23076,8.92969 0.73089,1.41883 1.23828,2.57857 1.12752,2.5772 -0.65922,-0.008 -3.31696,-1.90407 -4.94483,-3.52749 -5.71502,-5.69938 -6.82239,-10.94016 -4.36495,-20.65763 1.03142,-4.07858 1.01608,-4.05458 1.96079,-3.06851 0.92672,0.96728 1.59373,1.06664 1.35931,0.20247 -0.16629,-0.61297 -1.98086,-9.96158 -2.70903,-13.95677 -0.22545,-1.23693 -0.52486,-2.7952 -0.66536,-3.46283 l -0.25545,-1.21387 -4.15447,0.0665 c -2.28495,0.0366 -4.48266,0.14942 -4.8838,0.2508 -1.75808,0.44432 -3.63629,-0.57926 -3.63629,-1.98168 0,-0.93208 1.06333,-1.86098 2.1303,-1.86098 0.40481,0 0.78198,-0.13787 0.83815,-0.30637 0.19554,-0.58662 1.46388,0.0192 2.02253,0.96604 0.60239,1.02097 0.89865,1.08585 2.87521,0.6296 1.06946,-0.24686 1.55916,-0.22054 2.84344,0.15281 1.96312,0.57069 5.52182,0.57979 8.98218,0.023 3.29578,-0.53034 10.90287,-2.42527 15.35821,-3.82574 1.88777,-0.59339 3.53535,-1.07889 3.6613,-1.07889 1.24024,0 9.92374,-5.05949 11.09061,-6.462 0.3112,-0.37404 0.45902,-1.02257 0.46302,-2.0314 0.004,-1.06961 0.19244,-1.83281 0.67635,-2.74292 l 0.67047,-1.26098 -0.73661,0.18285 c -1.55205,0.38526 -2.8539,2.32336 -2.55718,3.80694 0.12532,0.62658 0.0422,0.84732 -0.4102,1.08944 -2.04348,1.09364 -2.79915,-2.77562 -0.96462,-4.93917 0.34493,-0.4068 1.27974,-1.13229 2.07734,-1.61221 1.17539,-0.70723 1.81981,-0.90017 3.40079,-1.0182 2.39291,-0.17864 4.06094,-0.76006 7.57298,-2.6397 2.45092,-1.31173 2.71198,-1.39875 2.71198,-0.90399 0,0.60105 -1.2236,1.47604 -2.43671,1.74248 -0.40606,0.0892 -0.73829,0.22022 -0.73829,0.2912 0,0.071 0.39027,0.50799 0.86726,0.97116 0.47699,0.46317 1.04776,1.12577 1.26836,1.47245 0.38572,0.60612 0.43198,0.61435 1.20533,0.21443 0.96302,-0.49799 3.09631,-1.00462 7.37468,-1.75139 1.74625,-0.3048 4.70741,-0.98165 6.58035,-1.50411 3.20771,-0.89479 3.75229,-0.94515 5.3259,-0.49248 0.4981,0.14329 0.53005,0.0233 0.54425,-2.04415 0.0125,-1.82443 0.25066,-3.02527 1.40626,-7.09117 0.76515,-2.69213 1.81442,-5.77834 2.33171,-6.85823 1.18531,-2.474425 2.90279,-4.345461 4.53966,-4.945546 1.81914,-0.666909 2.0781,-0.972325 1.5316,-1.806393 -0.91386,-1.394722 -3.95919,-0.603247 -6.1646,1.602161 -1.88273,1.88273 -3.45626,5.510108 -5.51423,12.711678 -1.64226,5.74685 -1.36809,5.40023 -4.80109,6.06947 -1.57816,0.30765 -4.00049,0.86073 -5.38294,1.22908 -1.38244,0.36834 -3.00134,0.74998 -3.59754,0.84808 l -1.08399,0.17838 -0.15796,-2.06694 c -0.23741,-3.10658 0.19997,-8.25335 0.87333,-10.27681 0.54131,-1.62662 4.94415,-10.625984 7.54029,-15.412289 1.4855,-2.738686 1.51322,-3.295327 0.19619,-3.938868 -0.96891,-0.473435 -1.00408,-0.542608 -1.49856,-2.947493 -0.47853,-2.327322 -0.54718,-2.470841 -1.24894,-2.611193 -0.97786,-0.195573 -1.1089,-0.727393 -0.77346,-3.139142 0.41132,-2.957232 0.50232,-2.767192 -1.32508,-2.767192 -2.04339,0 -2.62844,-0.304303 -2.62844,-1.367131 0,-1.588142 3.31053,-3.770246 4.09414,-2.698607 0.23573,0.322383 0.64941,0.385883 1.87448,0.287732 9.86628,-0.790472 11.53249,-0.816804 14.56097,-0.230116 1.61414,0.312696 2.99661,0.568538 3.07216,0.568538 0.0756,0 0.0785,-0.308183 0.006,-0.684852 l -0.13092,-0.684853 1.02751,0.52833 c 2.12514,1.092723 3.3342,3.191782 2.64528,4.592513 -0.37689,0.766299 -1.87629,1.539574 -2.98632,1.540118 -0.73676,3.7e-4 -0.87836,0.12172 -1.15817,0.992599 -0.17533,0.545703 -0.60128,1.673209 -0.94656,2.505569 -0.9115,2.197362 -0.82678,3.584856 0.40679,6.662407 1.07399,2.679449 1.90109,4.03611 4.37127,7.170045 1.85524,2.353744 2.53167,4.344657 2.53167,7.451335 0,2.57591 -0.15751,3.33171 -1.78302,8.55596 -1.26868,4.07744 -3.30591,9.02737 -3.92779,9.54348 -0.20603,0.17099 -0.37463,0.56421 -0.37466,0.87381 -6e-5,0.60312 -0.29569,0.77799 -6.48224,3.8343 -3.93043,1.94172 -11.54244,4.13418 -19.71146,5.67742 -1.09141,0.20619 -2.63922,0.63934 -3.43959,0.96257 -2.60379,1.05155 -3.75999,1.33342 -5.4696,1.33342 -0.92473,0 -1.91062,-0.14319 -2.19085,-0.3182 -0.43199,-0.26978 -0.89447,-0.12711 -3.03912,0.93756 -1.79942,0.89328 -2.5296,1.39372 -2.5296,1.73371 0,1.1018 2.76459,4.03601 4.76354,5.05579 1.94462,0.99208 1.95139,0.94065 -1.02747,7.80468 -2.25104,5.18692 -2.50076,6.49157 -2.34462,12.24909 0.18511,6.82596 1.02024,9.34335 4.13911,12.47689 2.2548,2.2654 5.00326,3.70016 7.45259,3.89044 0.93568,0.0727 1.58216,0.0336 1.43664,-0.0869 -0.14552,-0.1205 -0.27649,-0.36791 -0.29104,-0.54981 -0.0145,-0.1819 -0.0443,-0.58063 -0.0661,-0.88606 -0.0231,-0.32326 -0.99363,-1.45659 -2.32239,-2.71198 -4.16679,-3.93668 -5.57781,-6.60491 -6.18584,-11.69733 -0.59302,-4.96675 0.45672,-8.99201 3.15539,-12.09952 1.40918,-1.62266 1.44905,-1.85236 0.71249,-4.10483 -0.87192,-2.66643 -1.48475,-5.12355 -1.48475,-5.95299 0,-0.6142 0.13875,-0.69017 1.8038,-0.98774 1.74249,-0.3114 3.59981,-0.11478 6.56665,0.69515 0.50829,0.13876 0.65277,-0.0903 1.43368,-2.27345 0.67748,-1.89394 1.00785,-2.48076 1.5025,-2.66882 0.62821,-0.23885 2.98087,-0.3425 2.98087,-0.13133 0,0.0604 -0.53815,1.48605 -1.19588,3.1682 -1.5534,3.97281 -1.66272,4.52707 -0.96638,4.89974 0.96357,0.51569 1.6683,0.3165 2.72209,-0.76935 1.07554,-1.10828 1.80494,-1.31892 2.33896,-0.67546 0.25518,0.30747 0.1356,0.71131 -0.60715,2.05052 -0.5087,0.9172 -2.1943,4.52514 -3.74576,8.01764 -1.55147,3.4925 -3.5414,7.8762 -4.42207,9.74154 -0.88068,1.86534 -1.65759,3.89158 -1.72648,4.50275 -0.0689,0.61117 0.063,2.12108 0.29314,3.35534 0.23011,1.23427 0.53626,3.73241 0.68033,5.55142 0.14407,1.81901 0.50067,5.45041 0.79245,8.06979 0.63872,5.73415 1.09559,11.78995 0.91189,12.08718 -0.0734,0.11877 -0.57292,0.21625 -1.11003,0.21662 -0.64783,5.3e-4 -1.49787,0.31502 -2.52514,0.93446 l -1.54857,0.93377 -2.91824,-0.0746 -2.91824,-0.0746 0.0503,-4.67887 c 0.0476,-4.42903 0.0222,-4.69394 -0.47673,-4.96094 -0.75559,-0.40438 -2.33002,-0.35314 -2.49672,0.0813 -0.0767,0.19983 -0.21511,1.7774 -0.30761,3.50573 -0.2404,4.49138 -0.18023,4.32691 -1.47646,4.03567 -2.97879,-0.66929 -6.88919,-3.43365 -9.0818,-6.42015 -0.7063,-0.96203 -1.45489,-1.74915 -1.66354,-1.74915 -0.58663,0 -1.168,1.64697 -0.90503,2.56389 1.15,4.00984 5.24556,7.29521 11.20021,8.98458 1.34713,0.38219 2.47825,0.71742 2.51361,0.74495 0.10178,0.0793 0.82279,7.12939 1.40301,13.71888 0.56279,6.39153 0.93133,8.59257 1.86886,11.16165 0.63681,1.74502 0.73998,4.18297 0.26311,6.21771 -0.52401,2.23592 -0.33407,4.53507 0.79075,9.57169 0.59549,2.66646 1.60752,6.4651 2.24896,8.44142 0.64143,1.97632 1.16624,4.04946 1.16624,4.60696 0,1.41816 -1.01924,3.01624 -2.76376,4.33337 -0.80722,0.60945 -1.66232,1.40518 -1.90024,1.76828 -0.55247,0.84318 -0.54619,3.15471 0.0115,4.21891 0.57487,1.09704 0.52789,1.62966 -0.28552,3.23735 l -0.70472,1.39286 h -7.48401 -7.48402 z m 5.20752,-0.42786 c 0.30161,-0.38343 0.54837,-0.93098 0.54837,-1.21677 0,-0.28579 0.35719,-0.85328 0.79375,-1.26109 0.43657,-0.40782 0.79375,-0.89349 0.79375,-1.07927 0,-0.18579 -0.83343,0.538 -1.85208,1.60843 -1.01865,1.07043 -1.85208,2.10364 -1.85208,2.29603 0,0.60218 0.99469,0.38188 1.56829,-0.34733 z m 8.17272,-4.25439 c -0.11398,-0.97776 -2.00962,-2.12432 -4.06535,-2.4589 -1.9322,-0.31448 -2.50066,-0.16152 -2.50066,0.67287 0,0.56962 0.23878,0.70611 2.3151,1.32333 1.27331,0.37852 2.61276,0.78966 2.97656,0.91366 1.15147,0.39247 1.3639,0.3173 1.27435,-0.45096 z m 6.65379,-98.63285 c 0.0629,-5.38585 1.13292,-8.38564 4.23749,-11.88016 2.85235,-3.21062 2.34645,-4.45269 -0.94596,-2.32254 -3.59107,2.32337 -6.26535,7.80406 -5.83278,11.95374 0.18416,1.76663 0.85375,3.83101 1.57983,4.87068 0.49297,0.70586 0.55391,0.72778 0.73555,0.26458 0.10892,-0.27778 0.21056,-1.57661 0.22587,-2.8863 z m 2.27096,-17.76572 c 0.8302,-0.8958 0.81873,-1.43909 -0.0487,-2.30653 -0.79602,-0.79602 -1.54839,-0.90267 -1.79703,-0.25473 -0.16147,0.42079 0.0523,2.64139 0.29493,3.06292 0.23138,0.40206 0.91959,0.17944 1.55081,-0.50166 z m -2.72462,-14.52948 c 0.69123,-0.23682 1.25677,-0.49126 1.25677,-0.56542 0,-0.58374 -1.46094,-4.62768 -1.76213,-4.87765 -0.3001,-0.24906 -0.68591,-0.22162 -1.79371,0.12759 -1.65203,0.52076 -3.58791,2.38562 -3.58791,3.4563 0,1.03886 0.47319,2.00101 1.12064,2.27861 0.78191,0.33527 3.17931,0.1243 4.76634,-0.41943 z m 4.69489,-3.43062 c -0.16535,-0.79647 -0.40556,-1.44814 -0.5338,-1.44814 -0.34901,0 -0.11862,2.9257 0.30164,3.83057 l 0.36592,0.78786 0.0834,-0.86108 c 0.0459,-0.47358 -0.0519,-1.51273 -0.2172,-2.30921 z m 3.81132,0.77475 c 0.2281,-0.59441 -0.11336,-1.1564 -0.80865,-1.3309 -0.73362,-0.18413 -0.756,-0.17057 -0.99294,0.60149 -0.3384,1.10265 1.38985,1.80237 1.80159,0.72941 z m 3.81277,-0.94832 c 0.0584,-0.5058 -0.0795,-0.79624 -0.47993,-1.01055 -0.70051,-0.3749 -1.32186,0.0551 -1.32186,0.91491 0,0.77542 0.24031,0.97798 1.04843,0.88374 0.50686,-0.0591 0.69145,-0.25222 0.75336,-0.7881 z M 356.77,113.43649 c 0.36473,-0.68151 0.1364,-1.71343 -0.42695,-1.92961 -0.69288,-0.26588 -1.43833,0.31297 -1.43833,1.11689 0,1.3261 1.28977,1.88806 1.86528,0.81272 z m 4.73792,0.17065 c 0.24872,-0.29969 0.24083,-0.54464 -0.0362,-1.12448 -0.72357,-1.51432 -2.40871,-0.7431 -1.81106,0.82886 0.29264,0.7697 1.3177,0.93374 1.84729,0.29562 z m -0.11489,-5.98581 c 0.22253,-0.70112 -0.53227,-1.56854 -1.3649,-1.56854 -0.73707,0 -1.13615,1.10449 -0.62264,1.72323 0.50111,0.6038 1.77836,0.50439 1.98754,-0.15469 z m -1.39236,-5.1718 c 0.76249,-0.52658 1.95049,-1.50299 2.64,-2.1698 0.68952,-0.666803 2.17623,-1.694473 3.3038,-2.283716 2.22065,-1.160447 3.22313,-2.301703 2.45401,-2.793728 -0.65274,-0.417573 -3.51264,-0.313679 -4.17712,0.151747 -0.32489,0.227557 -1.00354,1.059106 -1.50812,1.847887 -0.50457,0.788781 -1.56673,2.140445 -2.36034,3.0037 -1.50474,1.63678 -2.48838,3.20134 -2.01267,3.20134 0.15075,0 0.89794,-0.43084 1.66044,-0.95743 z m 8.92697,-13.842696 c 3.46794,-2.322523 3.84443,-2.650045 3.91937,-3.409603 0.0794,-0.804489 0.0421,-0.840272 -0.87484,-0.840272 -0.9761,0 -6.81735,2.363227 -7.50998,3.038351 -0.21107,0.205735 -0.42176,1.156758 -0.5007,2.260089 l -0.1363,1.904889 0.633,-0.192061 c 0.34815,-0.105635 2.3594,-1.348261 4.46945,-2.761393 z m -4.83148,-4.734359 c 0.69278,-0.266467 2.47075,-1.281337 3.95104,-2.255266 2.88501,-1.898142 3.79086,-3.066872 3.79086,-4.890959 0,-0.914011 -0.66804,-1.365124 -2.02158,-1.365124 -0.62662,0 -0.65986,0.07096 -0.58713,1.253579 0.0705,1.147076 0.0178,1.274435 -0.62097,1.499073 -1.01133,0.355663 -1.93565,-0.35469 -2.77886,-2.135591 l -0.69858,-1.475414 -1.87196,0.169706 c -3.25966,0.295511 -3.39729,0.371783 -3.90131,2.161988 -0.62958,2.236148 -0.6056,2.71944 0.14425,2.907641 0.55076,0.138232 0.66756,0.400199 0.94485,2.119085 0.42397,2.628196 1.09047,2.995522 3.64939,2.011282 z m -4.09821,181.525705 c 6.36654,-0.0395 16.78451,-0.0395 23.15105,0 6.36653,0.0395 1.15755,0.0718 -11.57552,0.0718 -12.73308,0 -17.94206,-0.0323 -11.57553,-0.0718 z m 61.0526,-0.0355 c 0,-0.31488 2.20424,-3.53294 3.60802,-5.26748 0.62327,-0.77014 1.38927,-1.85583 1.70222,-2.41265 0.31295,-0.55682 1.04074,-1.29592 1.61729,-1.64245 2.37654,-1.42836 4.17838,-2.89292 4.3371,-3.52525 0.46308,-1.84503 -1.61223,-11.90534 -4.27667,-20.73175 -0.62883,-2.08315 -0.78285,-2.32169 -3.00458,-4.65384 -2.39273,-2.51166 -3.05157,-3.52179 -3.81585,-5.85046 -0.65651,-2.00022 -1.36768,-3.01095 -4.40086,-6.2544 -4.06893,-4.35102 -7.8209,-8.60589 -9.1806,-10.41107 -1.12768,-1.49719 -1.18692,-1.66057 -1.07801,-2.97384 0.0767,-0.92529 0.48487,-2.13558 1.22147,-3.62208 1.1847,-2.3908 2.42737,-3.70531 6.33653,-6.70288 1.72882,-1.32566 2.07876,-1.48712 3.36302,-1.55164 2.36294,-0.11872 3.51544,-0.93732 6.48885,-4.609 1.17435,-1.4501 2.30791,-2.63655 2.51904,-2.63655 0.45435,0 0.49639,0.81537 0.10928,2.11841 -0.15103,0.50836 -0.58074,2.47211 -0.95488,4.36388 -0.5573,2.81782 -0.68517,4.25266 -0.70747,7.9375 -0.0268,4.43029 -0.014,4.53624 0.84582,7.047 1.41322,4.12616 3.45768,7.09163 6.99823,10.15092 1.01047,0.87312 2.00466,1.84199 2.20932,2.15305 0.26887,0.40866 0.40838,1.83987 0.50289,5.15937 0.072,2.52661 0.25541,5.4868 0.4077,6.5782 0.49115,3.52018 3.87842,16.31979 5.1014,19.27692 0.88594,2.14212 1.00383,2.83441 0.68464,4.0198 -0.33105,1.22941 -1.47294,2.61323 -3.05398,3.70102 -0.66818,0.45972 -1.34845,1.23779 -1.67875,1.92009 -0.64419,1.33074 -0.71636,3.25846 -0.15005,4.00722 0.60288,0.79708 0.46503,1.74778 -0.47143,3.2512 l -0.8599,1.3805 -7.2099,0.007 c -4.00311,0.004 -7.20989,-0.0969 -7.20989,-0.22678 z m 5.61784,-1.02295 c 0.59839,-0.67878 2.11569,-3.79791 1.93527,-3.97833 -0.20942,-0.2094 -2.16609,1.72063 -2.833,2.79442 -0.8287,1.33432 -0.0917,2.30629 0.89773,1.18391 z m 8.88397,-4.23333 c -0.0502,-0.2606 -1.07071,-1.01182 -2.33452,-1.71838 -1.86428,-1.04229 -2.47637,-1.2556 -3.60617,-1.25677 -0.95125,-0.001 -1.40544,0.11509 -1.50931,0.38573 -0.23972,0.62472 1.01983,1.39425 3.49043,2.13248 1.25952,0.37636 2.40911,0.72792 2.55463,0.78124 0.14552,0.0533 0.54121,0.10634 0.87932,0.11783 0.44852,0.0152 0.59063,-0.10429 0.52562,-0.44213 z m -69.36982,-2.04234 c -1.60022,-0.5704 -1.62755,-0.64988 -1.11389,-3.23977 1.3828,-6.97211 1.46084,-7.17959 3.92644,-10.43821 1.8723,-2.47449 1.88354,-2.49811 2.29829,-4.82936 0.15322,-0.8612 0.48727,-1.79751 0.74236,-2.08067 0.25507,-0.28317 1.6544,-1.32823 3.10961,-2.32235 2.88342,-1.96981 8.70593,-6.63516 10.91164,-8.74308 1.80929,-1.72908 2.62283,-3.16188 3.40078,-5.98947 0.9313,-3.38498 0.86272,-6.20364 -0.28489,-11.71006 -0.50043,-2.40109 -1.256,-6.0325 -1.67906,-8.06979 -2.58839,-12.46471 -0.69721,-17.52785 8.48917,-22.7276 1.44967,-0.82055 2.3261,-2.28173 2.82909,-4.71663 0.41238,-1.99633 0.0347,-2.87801 -1.38322,-3.22919 -0.67222,-0.16648 -1.08698,-0.15394 -1.27962,0.0387 -0.15676,0.15676 -0.4455,1.20921 -0.64166,2.33877 -0.19615,1.12957 -0.51212,2.19561 -0.70214,2.36898 -0.19003,0.17337 -1.10311,0.59077 -2.02906,0.92756 -5.01552,1.82426 -8.40716,6.48002 -9.40043,12.90415 l -0.31211,2.01862 -3.02036,1.00428 c -4.13234,1.37402 -13.85576,3.17976 -14.921,2.77099 -0.25448,-0.0977 -0.38679,-1.38185 -0.51359,-4.98487 -0.18025,-5.1219 -0.6275,-11.41683 -0.86647,-12.19552 -0.13261,-0.43208 0.28789,-0.46337 6.29187,-0.46827 9.66528,-0.008 11.56344,-0.44859 14.4674,-3.35907 3.69045,-3.69873 4.55325,-8.95335 3.61244,-22.00035 -0.36586,-5.07378 -0.39557,-6.48979 -0.13947,-6.64808 0.61174,-0.37807 7.00949,-0.87621 10.8509,-0.84487 4.57835,0.0374 8.55026,0.76762 12.43541,2.28631 4.53099,1.77114 3.8744,1.78805 8.10926,-0.20888 4.13293,-1.94886 5.67375,-2.41522 9.3272,-2.82305 5.05778,-0.56461 10.18439,0.80757 14.8427,3.97276 1.80009,1.2231 5.51212,5.05966 6.70907,6.93411 2.10563,3.29755 3.45699,6.61936 4.30384,10.57949 0.54602,2.55323 0.63537,9.17686 0.25805,19.12833 -0.24937,6.5772 -0.0936,7.95734 1.18695,10.51681 1.82586,3.64939 5.54701,4.85563 9.24666,2.9974 1.82909,-0.91869 2.10793,-0.88639 2.10793,0.24413 0,1.14527 -1.38234,2.6363 -3.32766,3.5893 -1.08183,0.52997 -1.6836,0.63453 -3.55151,0.61705 -1.4111,-0.0132 -2.68306,-0.18558 -3.41423,-0.46271 -2.57863,-0.97737 -5.10924,-3.60167 -6.20768,-6.43755 -0.59301,-1.53094 -1.27701,-2.08068 -1.58626,-1.27484 -0.26495,0.69047 0.30226,5.17352 0.85939,6.79231 1.00928,2.93257 2.77366,5.11396 5.15861,6.37789 0.90694,0.48064 1.53178,0.57812 3.73497,0.58267 1.4552,0.003 3.15185,-0.099 3.77031,-0.22679 1.02722,-0.21216 1.12448,-0.18622 1.12448,0.29994 0,0.81223 -1.90238,2.36172 -3.47184,2.82779 -1.76583,0.5244 -4.6999,0.52712 -6.72518,0.006 -2.74468,-0.70591 -5.24475,-2.83049 -7.14364,-6.07067 -2.41911,-4.12791 -2.35543,-12.54551 0.13716,-18.13 1.20311,-2.69547 2.91248,-8.35631 3.22538,-10.68123 0.37213,-2.76521 0.1302,-8.816 -0.4404,-11.0146 -0.99148,-3.82021 -4.50117,-9.69618 -7.40802,-12.40255 -2.00797,-1.86949 -5.36279,-3.66024 -8.33596,-4.44961 -4.52554,-1.20152 -11.41251,-0.008 -10.69806,1.85354 0.1247,0.32495 0.35751,0.38013 0.99857,0.2367 0.45976,-0.10287 2.32423,-0.17619 4.14324,-0.16292 3.02998,0.0221 3.49401,0.094 5.53408,0.85745 1.2247,0.45834 2.9777,1.3226 3.89551,1.92057 3.23403,2.10706 6.83289,6.67809 8.18025,10.39001 2.08148,5.7344 1.72742,13.6406 -0.9172,20.48143 -1.57041,4.06215 -2.25949,6.74037 -2.69245,10.46468 -0.92761,7.97905 1.51746,14.80966 6.64985,18.57718 0.7207,0.52906 1.31038,1.0865 1.31038,1.23877 0,0.51624 -3.77646,0.0826 -5.18708,-0.59566 -2.9364,-1.4118 -5.55077,-5.29985 -6.74849,-10.03614 -0.49411,-1.95399 -0.54187,-2.74644 -0.43704,-7.25283 l 0.11771,-5.05916 1.50927,-5.92144 c 2.21511,-8.69074 2.83876,-11.75809 3.00106,-14.76045 0.20127,-3.72312 -0.5221,-6.70248 -1.62732,-6.70248 -1.07347,0 -1.21145,0.45405 -1.21145,3.98701 0,3.88557 -0.39817,6.44221 -1.74844,11.22653 -0.53393,1.89178 -1.36462,4.83647 -1.84603,6.54376 -0.48138,1.7073 -1.12024,4.734 -1.41967,6.726 -0.29943,1.992 -0.59973,3.67711 -0.66731,3.74468 -0.20198,0.202 -1.42166,-0.70142 -1.73342,-1.28398 -0.15938,-0.29778 -0.40235,-1.22051 -0.53996,-2.05052 -0.39399,-2.37636 0.146,-6.03202 1.9132,-12.95216 1.4269,-5.58768 1.61902,-6.65051 1.73361,-9.59132 0.0972,-2.49468 0.0233,-3.75582 -0.30046,-5.13279 -0.51883,-2.20607 -1.67632,-4.68716 -2.83877,-6.08485 -1.15737,-1.39158 -3.65551,-2.96387 -5.72455,-3.60293 -1.72855,-0.5339 -3.88811,-0.69801 -4.12573,-0.31354 -0.072,0.11645 0.40553,0.92012 1.06108,1.78594 1.48003,1.95472 2.68947,4.30349 3.80791,7.39505 1.55552,4.29974 1.36764,10.62172 -0.42285,14.22813 -0.76753,1.54599 -4.12793,5.7068 -6.79892,8.41842 -1.08844,1.10498 -2.18866,2.32909 -2.44496,2.72024 -0.25628,0.39115 -0.51261,0.66454 -0.56962,0.60754 -0.057,-0.057 0.97522,-1.85809 2.29383,-4.00241 3.25379,-5.29137 3.79023,-6.42539 4.63322,-9.79419 0.63138,-2.52321 0.70821,-3.25098 0.58664,-5.55625 -0.56923,-10.7915 -8.00495,-19.9133 -18.0866,-22.18785 -2.45536,-0.55396 -7.11648,-0.81763 -10.27187,-0.58106 l -2.58887,0.1941 0.11841,1.42792 c 0.0651,0.78536 0.18873,1.49823 0.27467,1.58417 0.0859,0.0859 1.48424,0.0159 3.10735,-0.15562 5.76614,-0.60934 10.27151,0.47217 14.9913,3.59867 4.01214,2.65773 7.28896,7.11658 8.4386,11.48256 0.71387,2.71112 0.65913,7.54929 -0.11367,10.04485 -1.4296,4.61659 -3.55161,7.79058 -7.91908,11.84489 -4.54301,4.21728 -5.23637,4.95502 -6.5319,6.94985 -2.09499,3.22585 -2.33945,4.21649 -2.4582,9.96167 -0.0576,2.78679 0.0289,6.95398 0.19222,9.26042 0.16332,2.30644 0.36982,5.34039 0.45889,6.74211 l 0.16194,2.54858 -1.16851,1.15559 c -0.64268,0.63557 -2.71364,2.0726 -4.60213,3.19339 -3.69075,2.19039 -6.72347,4.49898 -11.43294,8.70305 -3.37053,3.00882 -4.53945,4.34995 -5.28689,6.06576 -0.70314,1.61413 -1.14528,2.00003 -2.86398,2.49966 -1.93179,0.56159 -2.50294,1.15533 -2.50294,2.60194 v 1.13842 l -1.52136,-0.19005 c -2.26369,-0.28279 -5.7589,-0.27031 -6.53121,0.0233 -0.51336,0.19518 -0.67868,0.4451 -0.67868,1.02594 0,1.30694 0.45655,1.45526 3.97994,1.29292 2.55642,-0.11778 3.38692,-0.25851 4.2835,-0.72583 l 1.11222,-0.57972 0.60384,0.702 c 1.03498,1.20323 0.69791,3.24795 -0.87546,5.31075 -0.91337,1.1975 -3.80503,2.59495 -6.5132,3.14763 -2.43647,0.49723 -2.69032,0.49897 -4.01303,0.0275 z m -88.10017,-14.62637 c -1.02298,-2.03662 -2.55265,-6.03701 -2.55265,-6.67569 0,-0.45891 0.10338,-0.54826 0.46303,-0.4002 1.24939,0.51435 1.39516,0.44836 3.46994,-1.57071 1.14564,-1.11487 2.29529,-2.49785 2.55477,-3.07329 0.25949,-0.57544 0.63742,-1.04625 0.83984,-1.04625 0.47954,0 3.20764,2.06154 3.53327,2.66998 0.66667,1.24568 -0.10288,3.62305 -2.27717,7.03484 -1.87114,2.9361 -3.36316,4.31318 -4.67661,4.31635 -0.59841,0.001 -0.83205,-0.21505 -1.35442,-1.25503 z m -3.44814,-8.63759 c -0.0875,-0.34867 -0.28411,-1.86672 -0.43689,-3.37344 -0.15278,-1.50672 -0.49814,-3.39433 -0.76746,-4.1947 -0.97599,-2.90045 -1.00079,-2.66378 0.7207,-6.87916 0.44571,-1.09141 1.60033,-4.48469 2.56582,-7.54063 1.423,-4.504 1.82084,-6.15758 2.10075,-8.73146 0.57433,-5.28118 1.51378,-6.74438 5.34171,-8.31979 3.83796,-1.57954 7.40327,-3.81204 12.98216,-8.12909 1.19043,-0.92118 2.23254,-1.67487 2.31579,-1.67487 0.0832,0 0.59261,0.4884 1.1319,1.08532 2.18005,2.41306 5.51199,4.48743 9.5086,5.9198 2.10005,0.75264 5.57048,2.80888 6.04989,3.58458 0.20037,0.3242 -4.31825,1.72236 -13.62998,4.21741 -4.43838,1.18925 -9.00313,2.46513 -10.14389,2.83529 -2.79824,0.90799 -5.00273,2.60161 -6.15029,4.72503 -1.21952,2.25657 -3.28122,10.54307 -3.47981,13.98626 l -0.15107,2.6193 -1.1804,1.44922 c -1.10612,1.35802 -1.17268,1.5295 -1.05778,2.7253 l 0.12261,1.27609 -2.71719,2.52674 c -1.49446,1.38971 -2.77319,2.52675 -2.84163,2.52675 -0.0684,0 -0.19603,-0.28528 -0.28354,-0.63395 z m 76.97268,-23.68314 c -1.22856,-0.14673 -1.32487,-0.21315 -1.49016,-1.02761 -0.27329,-1.34661 -0.86073,-1.78364 -3.62793,-2.69905 -4.58377,-1.51634 -4.3638,-1.35875 -4.15365,-2.97569 0.29642,-2.28067 1.20998,-3.96567 2.81822,-5.198 0.77933,-0.59717 2.01227,-1.55606 2.73988,-2.13088 2.31933,-1.8323 4.08217,-1.2919 4.46811,1.36969 0.0899,0.62017 0.27758,2.73493 0.41701,4.69946 0.13943,1.96453 0.33527,4.61367 0.4352,5.88698 0.10459,1.33254 0.0809,2.29746 -0.0558,2.27354 -0.1306,-0.0229 -0.82852,-0.11216 -1.55091,-0.19844 z m -1.25717,-7.49906 c 0.24107,-0.29279 0.42353,-1.60408 0.34846,-2.50423 -0.0397,-0.47653 -1.02894,-0.92271 -1.62573,-0.73329 -1.26139,0.40035 -3.15665,2.67272 -2.7619,3.31144 0.23804,0.38515 3.71356,0.32155 4.03917,-0.0739 z m 8.89976,5.47385 c -3.65832,-0.61489 -3.44016,-0.38075 -3.64164,-3.90842 -0.0956,-1.67385 -0.40968,-4.69024 -0.69795,-6.7031 -0.28827,-2.01285 -0.94828,-7.88644 -1.46668,-13.05243 -1.58826,-15.82735 -1.59022,-15.84196 -2.22023,-16.51257 -0.53228,-0.56659 -0.53684,-0.61542 -0.0927,-0.99266 0.25692,-0.21822 1.06244,-0.61534 1.79004,-0.8825 4.16631,-1.52973 4.32152,-1.64695 7.58006,-5.72482 1.67052,-2.09055 3.78867,-4.78326 4.707,-5.98381 0.91832,-1.20054 1.70933,-2.18281 1.75778,-2.18281 0.0485,0 0.50982,0.85606 1.02527,1.90235 1.11975,2.27293 1.19912,3.61251 0.39579,6.67955 -1.29824,4.95655 -3.82076,8.76782 -6.52814,9.86337 -1.12217,0.45409 -1.16198,0.50841 -1.02491,1.39848 0.13969,0.90716 0.38166,6.07586 0.96522,20.61802 0.16015,3.9911 0.46037,8.21782 0.66714,9.3927 0.20677,1.17489 0.37611,3.11842 0.3763,4.31897 l 2.7e-4,2.18281 -0.7276,-0.0269 c -0.40019,-0.0148 -1.68949,-0.1886 -2.86512,-0.3862 z m -3.88176,-37.85363 c 0.41697,-0.11175 0.59532,-0.35859 0.59532,-0.82396 0,-0.63109 -0.0551,-0.65559 -1.09925,-0.48864 -1.30654,0.20893 -1.54659,0.33488 -1.54659,0.81147 0,0.58211 0.91443,0.80559 2.05052,0.50113 z m 19.3839,-5.2985 c -0.83966,-4.59744 -3.82137,-12.05131 -8.59434,-21.48466 -1.91014,-3.77523 -4.20907,-7.94323 -6.46594,-11.72288 l -0.57901,-0.96968 1.53421,-0.42695 c 9.548,-2.6571 12.17487,-4.0495 14.69241,-7.78783 l 0.92684,-1.37628 0.17288,2.19333 c 0.13944,1.76908 1.56097,10.76413 1.90209,12.03595 0.0897,0.33427 2.20827,-0.42359 4.66665,-1.66935 1.44629,-0.73289 2.53544,-0.81539 2.76789,-0.20965 0.0893,0.23264 -0.0387,1.54853 -0.28445,2.9242 -0.24572,1.37566 -0.56115,3.83446 -0.70096,5.46399 -0.29631,3.45351 -0.46226,3.69537 -2.85908,4.16692 l -1.51489,0.29803 0.18885,2.15933 c 0.20688,2.36564 0.99419,13.35282 1.09321,15.25621 l 0.0619,1.19062 -2.16282,0.7084 c -1.18955,0.38961 -2.69201,0.78775 -3.33879,0.88474 l -1.17597,0.17634 z m -96.60393,-11.15213 c -2.62024,-1.71051 -3.33525,-2.59424 -3.51799,-4.34811 -0.30469,-2.92434 -0.47191,-9.72617 -0.2391,-9.72617 0.13174,0 0.35263,0.10889 0.49088,0.24198 0.13824,0.13309 1.38244,0.71324 2.76489,1.28923 1.38245,0.57599 3.75874,1.77424 5.28063,2.66279 l 2.76709,1.61553 0.55726,-0.52351 c 0.40156,-0.37726 0.92209,-0.52238 1.86311,-0.51947 0.71823,0.002 1.43357,0.0915 1.58964,0.19844 0.40691,0.27873 1.17144,3.20971 1.17144,4.49093 0,0.78524 -0.19146,1.31436 -0.69,1.90683 -1.53596,1.82539 -2.59482,1.72541 -2.85952,-0.27 -0.18362,-1.3842 -0.67339,-1.8708 -1.41326,-1.4041 -0.21612,0.13632 -0.6596,0.98429 -0.98551,1.88437 -1.02113,2.8201 -1.85683,3.62732 -3.86516,3.73349 -0.73893,0.0391 -1.38622,-0.23463 -2.9144,-1.23223 z m 2.93826,-3.75553 c 0.76019,-0.76018 0.68438,-1.99809 -0.17092,-2.79076 -0.38505,-0.35685 -0.92083,-0.64882 -1.19063,-0.64882 -0.62449,0 -1.55174,0.91633 -1.53949,1.52135 0.0145,0.71631 0.64429,1.69109 1.34267,2.07817 0.8422,0.4668 0.94187,0.45657 1.55837,-0.15994 z m 2.24896,-9.02498 c -1.28855,-0.39936 -6.05157,-2.98477 -6.16107,-3.34429 -0.0778,-0.25533 0.89947,-0.33073 4.28694,-0.33073 2.41322,0 4.38767,0.0567 4.38767,0.1259 0,0.0692 -0.23767,0.51573 -0.52817,0.99219 -0.2905,0.47646 -0.52862,1.31277 -0.52917,1.85848 -0.001,1.05958 -0.11487,1.11417 -1.4562,0.69845 z m 15.38575,-3.87503 c -0.0683,-0.11049 -0.20453,-0.67623 -0.30276,-1.25721 -0.0982,-0.58098 -0.29497,-1.43754 -0.43721,-1.90348 -0.24229,-0.79367 -0.16493,-0.96077 1.22495,-2.64578 2.55536,-3.09797 3.47663,-5.81029 3.25776,-9.59111 -0.10174,-1.75763 -0.23178,-2.26808 -0.69606,-2.73237 -0.52404,-0.52404 -0.60583,-0.53607 -0.99548,-0.14642 -0.23349,0.23349 -0.63964,1.49683 -0.90256,2.80742 -0.43277,2.15732 -0.95808,3.68674 -1.18656,3.45465 -0.0481,-0.0489 -0.80457,-1.18165 -1.68109,-2.51734 -0.87652,-1.33569 -2.82183,-3.78794 -4.32291,-5.44945 l -2.72924,-3.02092 v -1.45052 c 0,-1.14627 -0.14257,-1.64041 -0.67966,-2.35576 -0.37382,-0.49788 -1.22114,-1.93062 -1.88294,-3.18387 -0.6618,-1.25324 -1.70952,-2.9639 -2.32826,-3.80146 -1.29613,-1.75451 -1.38729,-1.60397 1.69838,-2.80456 2.90957,-1.13207 5.55226,-1.581766 9.27379,-1.57808 5.05258,0.005 8.5117,0.78647 13.10098,2.9597 3.45795,1.6375 4.86486,2.5178 7.51492,4.70208 4.97149,4.09769 10.31752,12.13965 12.80212,19.25806 0.99236,2.84314 1.02126,3.14387 0.33732,3.50991 -1.22948,0.658 -10.04724,3.5721 -14.03978,4.63989 -6.70641,1.7936 -16.70919,3.61877 -17.02571,3.10662 z m 25.55424,-11.36711 c 0.61632,-0.5554 0.43847,-1.19178 -1.27785,-4.57246 -2.18186,-4.29768 -3.93602,-6.76649 -6.9722,-9.81269 -4.4086,-4.42315 -7.81815,-6.4211 -13.77355,-8.07109 -2.52987,-0.70093 -3.1415,-0.76825 -6.87785,-0.75703 -3.2467,0.01 -4.3118,0.10509 -5.11275,0.45767 -1.07611,0.47372 -1.13395,0.8812 -0.31098,2.19098 0.31672,0.50407 0.4952,0.52967 2.41458,0.34633 2.82008,-0.26937 6.88494,0.13144 9.75603,0.96199 8.39379,2.42815 14.90274,8.43902 19.1558,17.68995 1.04208,2.26665 1.10226,2.33858 1.80898,2.1622 0.40208,-0.10035 0.93749,-0.36848 1.18979,-0.59585 z m -34.09109,9.10303 -1.08861,-0.2684 -0.16658,-2.13948 c -0.0916,-1.17672 -0.16729,-5.05308 -0.16816,-8.61413 l -0.002,-6.47465 1.7515,1.71215 c 2.11696,2.06938 4.71272,5.46271 5.56004,7.2684 0.90423,1.92692 0.81714,2.84467 -0.45524,4.79759 -1.01592,1.5593 -3.62981,4.11359 -4.12037,4.02644 -0.12232,-0.0217 -0.71226,-0.1603 -1.31099,-0.30792 z m -16.06428,-4.19906 c -0.0939,-2.22886 -0.34766,-5.11063 -0.564,-6.40394 -0.21635,-1.29331 -0.32824,-2.45684 -0.24865,-2.58561 0.0796,-0.12878 0.83303,-0.5816 1.67431,-1.00628 2.41232,-1.21773 4.50744,-3.89217 4.51579,-5.76445 10e-4,-0.24588 0.80524,-0.33073 3.1344,-0.33073 h 3.13293 l 0.17436,5.59891 c 0.0959,3.0794 0.17344,7.57401 0.17231,9.98802 l -0.002,4.38911 -5.90937,0.0837 -5.90937,0.0837 z m 7.51595,-6.28108 c 0.56098,-0.56098 0.77339,-1.02843 0.77339,-1.70196 0,-1.19233 -0.68634,-1.45499 -2.05178,-0.7852 -1.28236,0.62904 -1.79896,1.55156 -1.41844,2.53296 0.39819,1.02693 1.64527,1.00576 2.69683,-0.0458 z m -9.97716,-6.92331 c 0.0899,-0.44965 0.3972,-1.34584 0.68282,-1.99154 l 0.51932,-1.174 2.19452,0.17581 c 1.20698,0.0967 2.22275,0.19761 2.25726,0.22425 0.0345,0.0267 -0.30453,0.54786 -0.75341,1.15825 -1.03099,1.40193 -2.74447,2.42477 -4.062,2.42477 -0.97872,0 -0.99822,-0.019 -0.83851,-0.81754 z m 3.52123,-5.70027 c -0.31417,-0.0932 -0.42518,-0.29231 -0.31824,-0.57097 0.0903,-0.23536 0.23257,-0.92671 0.31613,-1.53634 0.13256,-0.96715 0.0804,-1.13112 -0.40936,-1.28656 -0.83471,-0.26493 -1.61706,0.0809 -1.90677,0.84289 -0.14125,0.37153 -0.30055,0.62923 -0.35398,0.57267 -0.0534,-0.0566 -0.87553,-1.04164 -1.82686,-2.18908 -2.80834,-3.38722 -3.94156,-5.99571 -2.59694,-5.97774 0.64206,0.009 2.7316,1.00617 3.37746,1.61246 0.8282,0.77746 0.98191,0.0706 0.34764,-1.5987 -0.59629,-1.56932 -0.6628,-2.665403 -0.16173,-2.665403 1.58972,0 8.95377,3.667313 10.63378,5.295643 1.14746,1.11216 2.75863,4.41802 2.95298,6.05904 l 0.15934,1.34532 h -2.11236 c -1.1618,0 -3.35128,0.054 -4.8655,0.11992 -1.51423,0.066 -2.97025,0.0555 -3.23559,-0.0232 z M 357.9537,69.721982 c -0.0531,-0.172689 -0.17455,-1.921324 -0.26987,-3.885856 -0.0953,-1.964531 -0.32827,-4.583906 -0.51766,-5.820833 -0.26513,-1.731588 -0.27239,-2.326225 -0.0315,-2.584828 0.17204,-0.184729 1.09452,-0.408867 2.04994,-0.498086 l 1.73713,-0.162216 0.15876,2.217877 c 0.0873,1.219833 0.19202,4.001742 0.23266,6.18202 l 0.0739,3.964142 -1.66838,0.45088 c -1.23807,0.334589 -1.69328,0.369899 -1.76494,0.1369 z m 15.73644,-0.273438 c -1.27523,-0.370458 -2.91668,-0.534424 -6.35,-0.634308 -2.79577,-0.08133 -4.404,-0.219308 -4.05924,-0.348249 0.5634,-0.210716 0.56903,-0.276286 0.42476,-4.94659 -0.0804,-2.603173 -0.0641,-5.170907 0.0363,-5.706073 l 0.18254,-0.973031 5.21353,0.01152 c 5.2021,0.0115 7.25582,0.20514 7.78469,0.734007 0.19645,0.196456 0.15341,0.782101 -0.14469,1.968873 -0.42073,1.674942 -1.15648,6.897445 -1.29572,9.197337 l -0.0724,1.196114 z"
       id="path1" />
  </g>
</svg>
